GRF
version=1
nRows=10
nColumns=28
inDegrees=no
endheader
time	left_ground_force_vx	left_ground_force_vy	left_ground_force_vz	left_ground_force_px	left_ground_force_py	left_ground_force_pz	left_ground_torque_x	left_ground_torque_y	left_ground_torque_z	right_ground_force_vx	right_ground_force_vy	right_ground_force_vz	right_ground_force_px	right_ground_force_py	right_ground_force_pz	right_ground_torque_x	right_ground_torque_y	right_ground_torque_z
      0.00000000	      0.00000000	     -0.00000000	     -0.00000000	     -0.47208608	      0.00000000	     -0.28965187	      0.00000000	     -0.00000000	     -0.00000000	      0.00000000	     -0.00000000	     -0.00000000	      0.01955018	      0.00000000	     -0.18924062	      0.00000000	     -0.00000000	     -0.00000000	     -0.27075486	     -3.03871999	     -1.74874924	    815.28668639	      0.00000000	   -212.02223478	      0.00000000	   -137.01058891	     -0.00000000
      0.01000000	      0.00000000	     -0.00000000	     -0.00000000	     -0.47208608	      0.00000000	     -0.28965187	      0.00000000	     -0.00000000	     -0.00000000	      0.00000000	     -0.00000000	     -0.00000000	      0.01955018	      0.00000000	     -0.18924062	      0.00000000	     -0.00000000	     -0.00000000	     -0.79154514	     -2.29941536	     -1.56443622	    788.59969685	      0.00000000	    -25.22051246	      0.00000000	    259.04859785	      0.00000000
      0.02000000	      0.00000000	     -0.00000000	     -0.00000000	     -0.47208608	      0.00000000	     -0.28965187	      0.00000000	     -0.00000000	     -0.00000000	      0.00000000	     -0.00000000	     -0.00000000	      0.01955018	      0.00000000	     -0.18924062	      0.00000000	     -0.00000000	     -0.00000000	     -0.22670081	    -11.42220665	      0.88784778	    752.87730954	      0.00000000	   -271.11028858	      0.00000000	   -545.50147565	     -0.00000000
      0.03000000	      0.00000000	     -0.00000000	     -0.00000000	     -0.47208608	      0.00000000	     -0.28965187	      0.00000000	     -0.00000000	     -0.00000000	      0.00000000	     -0.00000000	     -0.00000000	      0.01955018	      0.00000000	     -0.18924062	      0.00000000	     -0.00000000	     -0.00000000	     -0.30807630	     -5.72021585	     -1.71842929	    769.56812098	      0.00000000	   -148.90300642	      0.00000000	    369.21543075	      0.00000000
      0.04000000	      0.00000000	     -0.00000000	     -0.00000000	     -0.47208608	      0.00000000	     -0.28965187	      0.00000000	     -0.00000000	     -0.00000000	      0.00000000	     -0.00000000	     -0.00000000	      0.01955018	      0.00000000	     -0.18924062	      0.00000000	     -0.00000000	     -0.00000000	     -0.01535184	     -6.48918422	     -1.21522322	    768.25298338	      0.00000000	   -245.01712987	      0.00000000	    430.29511212	      0.00000000
      0.05000000	      0.00000000	     -0.00000000	     -0.00000000	     -0.47208608	      0.00000000	     -0.28965187	      0.00000000	     -0.00000000	     -0.00000000	      0.00000000	     -0.00000000	     -0.00000000	      0.01955018	      0.00000000	     -0.18924062	      0.00000000	     -0.00000000	     -0.00000000	      0.60536864	     -4.64114256	     -0.61846334	    694.18837384	      0.00000000	   -279.07840099	      0.00000000	   -493.85204109	     -0.00000000
      0.06000000	      0.00000000	     -0.00000000	     -0.00000000	     -0.47208608	      0.00000000	     -0.28965187	      0.00000000	     -0.00000000	     -0.00000000	      0.00000000	     -0.00000000	     -0.00000000	      0.01955018	      0.00000000	     -0.18924062	      0.00000000	     -0.00000000	     -0.00000000	     -0.47606239	     -7.31969182	     -0.38592815	    772.60441396	      0.00000000	   -205.81032518	      0.00000000	   -381.81735329	     -0.00000000
      0.07000000	     -0.00000000	      0.00000000	      0.00000000	     -0.47208608	      0.00000000	     -0.28965187	      0.00000000	      0.00000000	      0.00000000	      0.00000000	     -0.00000000	     -0.00000000	      0.01955018	      0.00000000	     -0.18924062	      0.00000000	     -0.00000000	     -0.00000000	     -0.30012426	     -1.72574515	      0.07108885	    699.98209590	      0.00000000	   -314.59831942	      0.00000000	    152.71231043	      0.00000000
      0.08000000	     -0.00000000	      0.00000000	      0.00000000	     -0.47208608	      0.00000000	     -0.28965187	      0.00000000	      0.00000000	      0.00000000	     -0.00000000	      0.00000000	      0.00000000	      0.01955018	      0.00000000	     -0.18924062	      0.00000000	      0.00000000	      0.00000000	     -1.46288169	      2.23941193	     -2.62577366	    866.52436817	      0.00000000	   -500.53203354	      0.00000000	   -143.06739320	     -0.00000000
      0.09000000	     -0.00000000	      0.00000000	      0.00000000	     -0.47208608	      0.00000000	     -0.28965187	      0.00000000	      0.00000000	      0.00000000	     -0.00000000	      0.00000000	      0.00000000	      0.01955018	      0.00000000	     -0.18924062	      0.00000000	      0.00000000	      0.00000000	      0.39272124	      2.74802232	     -1.81239601	    767.09542376	      0.00000000	   -207.81129743	      0.00000000	   -300.21829972	     -0.00000000
